<?xml version="1.0" encoding="utf-8"?>
<!-- Generator: Adobe Illustrator 25.0.1, SVG Export Plug-In . SVG Version: 6.00 Build 0)  -->
<svg version="1.1" xmlns="http://www.w3.org/2000/svg" xmlns:xlink="http://www.w3.org/1999/xlink" x="0px" y="0px"
	 viewBox="0 0 1920 1080" style="enable-background:new 0 0 1920 1080;" xml:space="preserve">
<style type="text/css">
	.st0{fill:#873FB7;}
	.st1{fill:#FFFFFF;}
	.st2{display:none;fill:none;stroke:#0000FF;stroke-width:2;stroke-miterlimit:10;}
</style>
<g id="Layer_2">
	<rect class="st0" width="1920" height="1080"/>
</g>
<g id="Layer_1">
	<g id="Master_Guide_copy_2">
		<path class="st1" d="M776.2,202.3l-5.3,167c0,9.4-3.5,18.3-9.8,25c-6.3,6.7-14.7,10.4-23.5,10.4c-18.4,0-33.3-15.9-33.3-35.5
			L698,236.6h-5.8L686,369.4c0,9.4-3.5,18.3-9.8,25c-6.3,6.7-14.7,10.4-23.5,10.4c-18.4,0-33.3-15.9-33.3-35.5l-5.3-167h34.2
			l4.3,178.1h4.6l6.7-144.9c0-8.8,3.2-17.2,9.2-23.5c5.9-6.3,13.8-9.8,22.1-9.8c17.2,0,31.3,14.9,31.3,33.3l6.7,144.8h5.9l3-178.1
			L776.2,202.3L776.2,202.3z"/>
		<g>
			<path class="st1" d="M933.8,222.3c-12.5-13.2-30.1-19.9-52.3-19.9c-22.2,0-39.8,6.7-52.3,19.9c-12.5,13.2-18.9,32.1-18.9,56.2
				v42.4c0,3,0,72.7,0.1,83.9h33.8l-0.1-75l74.8,0.1c0,0,0,66.9-0.1,74.9h33.8c0.1-11.1,0.1-80.9,0.1-83.9v-42.4
				C952.7,254.4,946.3,235.5,933.8,222.3z M918.8,298.9l-74.8,0v-22.5c0-6.1,0.7-11.9,2-17.3c1.4-5.4,3.6-10.2,6.5-14.2
				c3-4,6.9-7.2,11.7-9.6c4.8-2.4,10.5-3.6,17.2-3.6c6.7,0,12.4,1.2,17.2,3.6c4.8,2.4,8.7,5.6,11.7,9.6c3,4,5.1,8.8,6.5,14.2
				c1.3,5.4,2,11.2,2,17.3L918.8,298.9L918.8,298.9z"/>
			<path class="st1" d="M915.4,637.1c8.5-2.7,15.8-6.7,21.7-11.8c5.9-5,10.4-11.2,13.6-18.3c3.1-7.1,4.7-15.3,4.7-24.2v-3.4
				c0-16.6-5.2-29.2-15.4-37.6c-10.5-8.6-26.1-14.9-46.3-18.6c-8.4-1.5-15.4-3.2-20.8-4.9c-5.6-1.8-10.2-3.9-13.7-6.2
				c-3.7-2.5-6.4-5.3-7.9-8.5c-1.5-3.1-2.2-6.6-2.2-10.5c0-7.6,3.1-13.7,9.3-18.1c5.9-4.2,14-6.4,23.9-6.4c11.8,0,21.1,3.2,27.8,9.6
				c6.7,6.4,10,14.1,10,22.8v4.1H952v-7.5c0-7.8-1.5-15.3-4.5-22.4c-3-7-7.4-13.3-13.2-18.8c-5.8-5.4-13.2-9.8-21.9-13
				c-8.7-3.2-18.9-4.8-30.2-4.8c-10,0-19.2,1.4-27.3,4.1c-8,2.7-15,6.6-20.6,11.5c-5.6,4.9-10.1,10.7-13.2,17.2
				c-3.1,6.5-4.7,13.8-4.7,21.5v1.7c0,9.4,1.6,17.5,4.8,23.9s7.7,11.9,13.5,16.2c5.9,4.4,12.9,8,20.9,10.6
				c8.1,2.7,17.2,4.9,27.1,6.6c7.7,1.3,14.1,3,19.2,5c5.2,2,9.3,4.3,12.4,6.9c3.2,2.7,5.4,5.7,6.7,9.1c1.2,3.3,1.9,6.7,1.9,10.3
				c0,7.6-3.1,14.3-9.1,19.7c-6,5.4-15,8.1-27,8.1c-15.2,0-26.7-3.9-34-11.5c-7.4-7.6-11.1-17.9-11.1-30.6V565h-31.9v5.8
				c0,10.1,1.7,19.5,4.9,28c3.2,8.5,8.1,15.9,14.4,22.2c6.3,6.3,14.3,11.2,23.8,14.8c9.5,3.6,20.8,5.4,33.4,5.4
				C897,641.2,906.9,639.8,915.4,637.1"/>
		</g>
		<path class="st1" d="M1287,695.7c-12.5-13.7-30.1-20.7-52.3-20.7c-22.2,0-39.8,7-52.3,20.7c-12.6,13.8-18.9,33.4-18.9,58.5v44.1
			c0,25.8,6.4,45.7,18.9,59.1c12.5,13.3,30.1,20.1,52.3,20.1c22.2,0,39.8-6.8,52.3-20.1c12.6-13.4,18.9-33.2,18.9-59.1v-44.1
			C1305.9,729.2,1299.6,709.5,1287,695.7z M1272.1,800.7c0,6.7-0.6,12.9-1.7,18.5c-1.2,5.7-3.3,10.7-6.2,14.8
			c-3,4.2-6.9,7.5-11.7,9.8c-4.7,2.3-10.7,3.4-17.7,3.4s-13-1.2-17.7-3.4c-4.8-2.3-8.7-5.6-11.7-9.8c-3-4.1-5.1-9.1-6.2-14.8
			c-1.2-5.6-1.7-11.8-1.7-18.5V752c0-6.3,0.7-12.4,2-17.9c1.4-5.7,3.6-10.6,6.5-14.8c3-4.2,6.9-7.5,11.6-10
			c4.8-2.5,10.6-3.7,17.2-3.7c6.7,0,12.4,1.3,17.2,3.7c4.8,2.5,8.7,5.8,11.6,10c2.9,4.1,5.1,9.1,6.5,14.8c1.3,5.6,2,11.6,2,17.9
			L1272.1,800.7L1272.1,800.7z"/>
		<g>
			<polygon class="st1" points="1090.8,877.5 1031.1,793.1 1020.6,793.1 1020.6,877.5 987.8,877.5 987.8,675.1 1020.6,675.1 
				1020.6,759.5 1031.1,759.5 1092.4,675.1 1130.3,675.1 1060.9,773.1 1060.9,779.5 1130.3,877.5 			"/>
			<path class="st1" d="M1111.4,459.4c-12.5-13.7-30.1-20.6-52.3-20.6c-22.2,0-39.8,7-52.3,20.6c-12.6,13.8-18.9,33.4-18.9,58.5
				v44.1c0,25.8,6.4,45.7,18.9,59.1c12.5,13.3,30.1,20.1,52.3,20.1c22.2,0,39.8-6.8,52.3-20.1c12.6-13.4,18.9-33.2,18.9-59.1V518
				C1130.3,492.9,1124,473.2,1111.4,459.4z M1096.5,564.3c0,6.7-0.6,12.9-1.7,18.5c-1.2,5.7-3.3,10.7-6.2,14.8
				c-3,4.2-6.9,7.5-11.7,9.8c-4.7,2.3-10.7,3.4-17.7,3.4s-13-1.2-17.7-3.4c-4.8-2.3-8.7-5.6-11.7-9.8c-3-4.1-5.1-9.1-6.2-14.8
				c-1.2-5.6-1.7-11.8-1.7-18.5v-48.7c0-6.3,0.7-12.4,2-17.9c1.4-5.7,3.6-10.6,6.5-14.8c3-4.2,6.9-7.5,11.6-10
				c4.8-2.5,10.6-3.7,17.2-3.7c6.7,0,12.4,1.3,17.2,3.7c4.8,2.5,8.7,5.9,11.6,10c2.9,4.1,5.1,9.1,6.5,14.8c1.3,5.6,2,11.6,2,17.9
				L1096.5,564.3L1096.5,564.3z"/>
		</g>
		<path class="st2" d="M614.1,202.4l-5.3,167c0,9.4-3.5,18.3-9.8,25c-6.3,6.7-14.7,10.4-23.5,10.4c-18.4,0-33.3-15.9-33.3-35.5
			l-6.3-132.7h-5.8l-6.3,132.7c0,9.4-3.5,18.3-9.8,25c-6.3,6.7-14.7,10.4-23.5,10.4c-18.4,0-33.3-15.9-33.3-35.5l-5.3-167H486
			l4.3,178.1h4.6l6.7-144.9c0-8.8,3.2-17.2,9.2-23.5c5.9-6.3,13.8-9.8,22.1-9.8c17.2,0,31.3,14.9,31.3,33.3l6.7,144.8h5.9l3-178.1
			L614.1,202.4L614.1,202.4z"/>
		<path class="st2" d="M614.1,0l-5.3,167c0,9.4-3.5,18.3-9.8,25.1c-6.3,6.7-14.7,10.4-23.5,10.4c-18.4,0-33.3-15.9-33.3-35.5
			l-6.3-132.7h-5.8L523.8,167c0,9.4-3.5,18.3-9.8,25c-6.3,6.7-14.7,10.4-23.5,10.4c-18.4,0-33.3-15.9-33.3-35.5L451.9,0H486
			l4.3,178.1h4.6l6.7-144.9c0-8.8,3.2-17.2,9.2-23.5C516.8,3.5,524.6,0,533,0c17.2,0,31.3,14.9,31.3,33.3l6.7,144.8h5.9l3-178.1
			H614.1z"/>
		<path class="st2" d="M1468.1,675.1l-5.3,167c0,9.4-3.5,18.3-9.8,25c-6.3,6.7-14.7,10.4-23.6,10.4c-18.4,0-33.3-15.9-33.3-35.5
			l-6.3-132.7h-5.8l-6.3,132.7c0,9.4-3.5,18.3-9.8,25c-6.3,6.7-14.7,10.4-23.6,10.4c-18.4,0-33.3-15.9-33.3-35.5l-5.3-167h34.2
			l4.3,178.1h4.6l6.7-144.9c0-8.8,3.2-17.2,9.2-23.5c5.9-6.3,13.8-9.8,22.1-9.8c17.2,0,31.3,14.9,31.3,33.3l6.7,144.8h5.9l3-178.1
			L1468.1,675.1L1468.1,675.1z"/>
		<path class="st2" d="M1468.1,877.5l-5.3,167c0,9.4-3.5,18.3-9.8,25.1c-6.3,6.7-14.7,10.4-23.6,10.4c-18.4,0-33.3-15.9-33.3-35.5
			l-6.3-132.7h-5.8l-6.3,132.7c0,9.4-3.5,18.3-9.8,25c-6.3,6.7-14.7,10.4-23.6,10.4c-18.4,0-33.3-15.9-33.3-35.5l-5.3-167h34.2
			l4.3,178.1h4.6l6.7-144.9c0-8.8,3.2-17.2,9.2-23.5c5.9-6.3,13.8-9.8,22.1-9.8c17.2,0,31.3,14.9,31.3,33.3l6.7,144.8h5.9l3-178.1
			L1468.1,877.5L1468.1,877.5z"/>
	</g>
</g>
</svg>
