<svg width="218" height="53" viewBox="0 0 218 53" fill="none" xmlns="http://www.w3.org/2000/svg">
<path d="M32.91 51.1403L31.9764 50.9079L36.4111 38.3552L45.0471 35.5658L46.4475 31.1491L50.6488 24.4079L46.2141 15.3421L40.6124 8.60086L28.4753 6.04384L18.4389 7.90349L5.83509 14.1798L1.63381 20.921L2.80083 29.9868L13.304 33.2412L18.6723 36.728L29.409 34.171L30.1092 41.3772H29.409L28.7088 35.3333L18.6723 37.6579L12.8372 33.9386L2.10062 30.6842L0.933594 20.6886L5.36828 13.4824L18.2055 7.20612L28.4753 5.11401L41.0792 7.90349L46.9143 14.8772L51.5824 24.4079L47.3811 31.3816L45.7473 36.2631L37.1113 39.0526L32.91 51.1403Z" fill="#DCDDDE"/>
<path d="M28.2421 34.6359L19.6062 28.3596L11.6704 17.8991L28.709 14.4122L35.7111 21.1535V21.3859C37.5783 31.1491 37.5783 31.1491 37.5783 31.3815C37.8117 31.614 37.8117 31.614 28.2421 34.6359ZM20.073 27.8947L28.2421 33.7061C31.043 32.7763 35.4777 31.3815 36.6447 30.9166C36.4113 29.7543 35.4777 24.8728 35.0109 21.6184L28.4755 15.3421L13.3042 18.5964L20.073 27.8947Z" fill="#DCDDDE"/>
<path d="M13.0708 33.2412L12.604 18.5965L18.4391 6.74123L26.8417 12.7851L26.3749 13.4825L18.6725 7.90351L13.5376 18.8289L13.771 31.3816L19.6061 26.9649L27.3085 14.6447L28.2421 5.8114L29.1757 6.04386L28.2421 14.8772L20.3064 27.4298L13.0708 33.2412Z" fill="#DCDDDE"/>
<path d="M36.8781 39.2851L29.1758 35.3333L29.6426 34.636L36.8781 38.3553L44.8139 32.0789L35.7111 31.1491L49.0152 25.1053L35.0109 20.921L36.1779 20.4561C40.3792 18.5965 46.6811 15.807 47.1479 15.807L47.6148 16.5044C47.3813 16.7368 41.7796 19.0614 37.5784 20.921L51.3492 24.8728L38.7454 30.4517L46.9145 31.1491L36.8781 39.2851Z" fill="#DCDDDE"/>
<path d="M13.0706 32.3114L1.16699 19.2938L10.5032 17.4342L5.83509 14.1798L6.3019 13.4824L12.6038 17.8991L2.80083 19.9912L13.7708 31.614L13.0706 32.3114Z" fill="#DCDDDE"/>
<path d="M11.8 19.7038L2.72266 29.3909L3.40522 30.0253L12.4826 20.3382L11.8 19.7038Z" fill="#DCDDDE"/>
<path d="M19.1392 35.7983L18.2056 35.5658L19.606 27.8948L34.0771 20.4562L34.3105 21.1535L20.3062 28.3597L19.1392 35.7983Z" fill="#DCDDDE"/>
<path d="M35.4777 20.2237L34.7775 19.7588L39.4456 9.76318L29.1758 13.9474L28.9424 13.0176L41.3128 8.13599L35.4777 20.2237Z" fill="#DCDDDE"/>
<path d="M29.9926 40.9676L29.0981 41.2339L32.0394 51.0334L32.9339 50.7671L29.9926 40.9676Z" fill="#DCDDDE"/>
<path d="M2.80082 31.3815C3.57425 31.3815 4.20125 30.7571 4.20125 29.9868C4.20125 29.2165 3.57425 28.592 2.80082 28.592C2.02738 28.592 1.40039 29.2165 1.40039 29.9868C1.40039 30.7571 2.02738 31.3815 2.80082 31.3815Z" fill="#DCDDDE"/>
<path d="M18.6724 37.8903C19.4458 37.8903 20.0728 37.2659 20.0728 36.4956C20.0728 35.7253 19.4458 35.1008 18.6724 35.1008C17.899 35.1008 17.272 35.7253 17.272 36.4956C17.272 37.2659 17.899 37.8903 18.6724 37.8903Z" fill="#DCDDDE"/>
<path d="M28.4756 36.0307C29.2491 36.0307 29.8761 35.4062 29.8761 34.6359C29.8761 33.8657 29.2491 33.2412 28.4756 33.2412C27.7022 33.2412 27.0752 33.8657 27.0752 34.6359C27.0752 35.4062 27.7022 36.0307 28.4756 36.0307Z" fill="#DCDDDE"/>
<path d="M50.8824 26.0351C51.6558 26.0351 52.2828 25.4106 52.2828 24.6403C52.2828 23.8701 51.6558 23.2456 50.8824 23.2456C50.1089 23.2456 49.4819 23.8701 49.4819 24.6403C49.4819 25.4106 50.1089 26.0351 50.8824 26.0351Z" fill="#DCDDDE"/>
<path d="M18.6724 8.60088C19.4458 8.60088 20.0728 7.97643 20.0728 7.20614C20.0728 6.43585 19.4458 5.8114 18.6724 5.8114C17.899 5.8114 17.272 6.43585 17.272 7.20614C17.272 7.97643 17.899 8.60088 18.6724 8.60088Z" fill="#DCDDDE"/>
<path d="M28.709 6.97368C29.4825 6.97368 30.1095 6.34923 30.1095 5.57894C30.1095 4.80865 29.4825 4.1842 28.709 4.1842C27.9356 4.1842 27.3086 4.80865 27.3086 5.57894C27.3086 6.34923 27.9356 6.97368 28.709 6.97368Z" fill="#DCDDDE"/>
<path d="M29.4092 42.5395C30.1827 42.5395 30.8096 41.915 30.8096 41.1447C30.8096 40.3744 30.1827 39.75 29.4092 39.75C28.6358 39.75 28.0088 40.3744 28.0088 41.1447C28.0088 41.915 28.6358 42.5395 29.4092 42.5395Z" fill="#DCDDDE"/>
<path d="M36.878 32.3114C37.6514 32.3114 38.2784 31.687 38.2784 30.9167C38.2784 30.1464 37.6514 29.522 36.878 29.522C36.1045 29.522 35.4775 30.1464 35.4775 30.9167C35.4775 31.687 36.1045 32.3114 36.878 32.3114Z" fill="#DCDDDE"/>
<path d="M13.0708 35.1009C14.1021 35.1009 14.9381 34.2683 14.9381 33.2412C14.9381 32.2142 14.1021 31.3816 13.0708 31.3816C12.0396 31.3816 11.2036 32.2142 11.2036 33.2412C11.2036 34.2683 12.0396 35.1009 13.0708 35.1009Z" fill="#DCDDDE"/>
<path d="M46.6807 32.7763C47.4541 32.7763 48.0811 32.1518 48.0811 31.3816C48.0811 30.6113 47.4541 29.9868 46.6807 29.9868C45.9073 29.9868 45.2803 30.6113 45.2803 31.3816C45.2803 32.1518 45.9073 32.7763 46.6807 32.7763Z" fill="#DCDDDE"/>
<path d="M36.4112 40.4474C37.3135 40.4474 38.045 39.7189 38.045 38.8202C38.045 37.9215 37.3135 37.193 36.4112 37.193C35.5088 37.193 34.7773 37.9215 34.7773 38.8202C34.7773 39.7189 35.5088 40.4474 36.4112 40.4474Z" fill="#DCDDDE"/>
<path d="M5.6016 15.1097C6.37504 15.1097 7.00203 14.4852 7.00203 13.7149C7.00203 12.9446 6.37504 12.3202 5.6016 12.3202C4.82817 12.3202 4.20117 12.9446 4.20117 13.7149C4.20117 14.4852 4.82817 15.1097 5.6016 15.1097Z" fill="#DCDDDE"/>
<path d="M1.40043 21.3859C2.17386 21.3859 2.80086 20.7615 2.80086 19.9912C2.80086 19.2209 2.17386 18.5964 1.40043 18.5964C0.626993 18.5964 0 19.2209 0 19.9912C0 20.7615 0.626993 21.3859 1.40043 21.3859Z" fill="#DCDDDE"/>
<path d="M46.9141 17.4343C47.6875 17.4343 48.3145 16.8098 48.3145 16.0395C48.3145 15.2692 47.6875 14.6448 46.9141 14.6448C46.1407 14.6448 45.5137 15.2692 45.5137 16.0395C45.5137 16.8098 46.1407 17.4343 46.9141 17.4343Z" fill="#DCDDDE"/>
<path d="M32.4434 53C33.6036 53 34.5441 52.0633 34.5441 50.9079C34.5441 49.7525 33.6036 48.8158 32.4434 48.8158C31.2833 48.8158 30.3428 49.7525 30.3428 50.9079C30.3428 52.0633 31.2833 53 32.4434 53Z" fill="#DCDDDE"/>
<path d="M35.0108 23.0132C36.171 23.0132 37.1114 22.0765 37.1114 20.9211C37.1114 19.7656 36.171 18.829 35.0108 18.829C33.8506 18.829 32.9102 19.7656 32.9102 20.9211C32.9102 22.0765 33.8506 23.0132 35.0108 23.0132Z" fill="#DCDDDE"/>
<path d="M78.4239 13.7149C80.5246 14.8772 82.3918 16.7369 83.5588 18.829C84.7259 21.1535 85.4261 23.4781 85.4261 26.2676V38.5878C85.4261 39.0527 85.1927 39.5176 84.9593 39.9825C84.4925 40.4474 84.0256 40.4474 83.5588 40.4474C82.8586 40.4474 82.3918 40.215 82.1584 39.9825C81.6916 39.5176 81.6916 39.0527 81.6916 38.5878V35.5658C80.5246 37.193 78.8907 38.5878 77.0235 39.5176C75.1563 40.4474 73.0556 40.9123 70.7216 40.9123C68.1541 40.9123 65.5867 40.2149 63.486 39.0527C61.3854 37.8904 59.7516 36.0307 58.3511 33.9386C57.1841 31.8465 56.4839 29.2895 56.4839 26.5C56.4839 23.7106 57.1841 21.386 58.3511 19.0614C59.5181 16.7369 61.3854 15.1097 63.486 13.9474C65.5867 12.7851 68.1541 12.0878 70.955 12.0878C73.7558 11.8553 76.3233 12.5527 78.4239 13.7149ZM76.5567 35.7983C78.1905 34.8685 79.3576 33.4737 80.2912 31.8465C81.2248 30.2193 81.6916 28.3597 81.6916 26.2676C81.6916 24.1755 81.2248 22.3158 80.2912 20.6886C79.3576 19.0614 78.1905 17.6667 76.5567 16.7369C74.9229 15.8071 73.0556 15.3421 71.1884 15.3421C69.0877 15.3421 67.4539 15.8071 65.8201 16.7369C64.1862 17.6667 63.0192 19.0614 62.0856 20.6886C61.152 22.3158 60.6852 24.1755 60.6852 26.2676C60.6852 28.3597 61.152 30.2193 62.0856 31.8465C63.0192 33.4737 64.1862 34.8685 65.8201 35.7983C67.4539 36.7281 69.3211 37.193 71.1884 37.193C73.0556 37.193 74.9229 36.7281 76.5567 35.7983Z" fill="#00AEEF"/>
<path d="M107.6 12.3201C108.533 12.785 108.767 13.25 108.767 13.9473C108.767 14.1798 108.767 14.4122 108.767 14.4122C108.533 14.8772 108.3 15.3421 108.066 15.3421C107.833 15.5745 107.366 15.5745 106.899 15.5745C106.666 15.5745 105.966 15.5745 105.266 15.5745C105.032 15.5745 104.565 15.5745 104.098 15.5745C101.531 15.5745 99.4304 16.2719 97.7966 17.6666C96.1627 19.0614 95.2291 20.921 95.2291 23.0131V38.5877C95.2291 39.2851 94.9957 39.75 94.7623 39.9824C94.5289 40.2149 93.8287 40.4473 93.3619 40.4473C92.6617 40.4473 92.1948 40.2149 91.9614 39.9824C91.728 39.75 91.4946 39.0526 91.4946 38.5877V14.1798C91.4946 13.4824 91.728 13.0175 91.9614 12.785C92.1948 12.5526 92.8951 12.3201 93.3619 12.3201C94.0621 12.3201 94.5289 12.5526 94.7623 12.785C94.9957 13.0175 95.2291 13.7149 95.2291 14.1798V16.5043C96.1627 15.1096 97.5632 13.9473 99.197 13.0175C100.831 12.3201 102.465 11.8552 104.332 11.8552C105.732 11.8552 106.899 12.0877 107.6 12.3201Z" fill="#00AEEF"/>
<path d="M131.64 13.7149C133.741 14.8772 135.608 16.7368 136.775 18.8289C137.942 20.921 138.642 23.478 138.642 26.2675V36.9605C138.642 39.75 137.942 42.307 136.775 44.3991C135.608 46.7237 133.741 48.3508 131.64 49.7456C129.54 51.1403 126.972 51.6052 124.171 51.6052C121.604 51.6052 119.036 51.1403 116.936 50.2105C114.835 49.2807 113.201 47.8859 111.567 46.0263C111.334 45.7938 111.101 45.3289 111.101 44.864C111.101 44.3991 111.334 43.9342 111.801 43.4693C112.034 43.2368 112.501 43.0044 112.968 43.0044C113.201 43.0044 113.668 43.0044 113.901 43.2368C114.135 43.4693 114.368 43.7017 114.602 43.9342C115.535 45.3289 116.936 46.2587 118.57 46.9561C120.203 47.6535 122.071 48.1184 123.938 48.1184C125.805 48.1184 127.672 47.6535 129.306 46.7237C130.94 45.7938 132.107 44.3991 133.041 42.7719C133.974 41.1447 134.441 39.0526 134.441 36.9605V34.6359C133.507 36.4956 131.874 38.1228 130.006 39.2851C128.373 40.2149 126.039 40.9122 123.704 40.9122C120.904 40.9122 118.57 40.2149 116.469 39.0526C114.368 37.8903 112.734 36.0307 111.567 33.9386C110.4 31.8465 109.7 29.2894 109.7 26.5C109.7 23.7105 110.4 21.1535 111.567 19.0614C112.734 16.7368 114.368 14.8772 116.702 13.7149C118.803 12.5526 121.37 11.8552 124.171 11.8552C126.972 11.8552 129.306 12.5526 131.64 13.7149ZM129.54 35.7982C131.173 34.8684 132.34 33.7061 133.274 31.8465C134.208 30.2193 134.674 28.3596 134.674 26.2675C134.674 24.1754 134.208 22.3158 133.274 20.6886C132.34 19.0614 131.173 17.6666 129.54 16.7368C127.906 15.807 126.039 15.3421 124.171 15.3421C122.071 15.3421 120.203 15.807 118.803 16.7368C117.169 17.6666 116.002 19.0614 115.069 20.6886C114.135 22.3158 113.668 24.1754 113.668 26.2675C113.668 28.3596 114.135 30.2193 115.069 31.8465C116.002 33.4736 117.169 34.8684 118.803 35.7982C120.437 36.728 122.304 37.1929 124.171 37.1929C126.039 37.1929 127.906 36.728 129.54 35.7982Z" fill="#00AEEF"/>
<path d="M164.784 13.7149C166.884 14.8772 168.752 16.7368 169.919 18.8289C171.086 21.1535 171.786 23.478 171.786 26.2675C171.786 29.057 171.086 31.3815 169.919 33.7061C168.752 35.7982 166.884 37.6579 164.784 38.8201C162.683 39.9824 160.116 40.6798 157.315 40.6798C154.514 40.6798 152.18 39.9824 149.846 38.8201C147.745 37.6579 145.878 35.7982 144.711 33.7061C143.544 31.614 142.844 29.057 142.844 26.2675C142.844 23.478 143.544 21.1535 144.711 18.8289C145.878 16.5043 147.745 14.8772 149.846 13.7149C151.947 12.5526 154.514 11.8552 157.315 11.8552C160.116 11.8552 162.45 12.5526 164.784 13.7149ZM151.947 16.9693C150.313 17.8991 149.146 19.2938 148.212 20.921C147.278 22.5482 146.812 24.4079 146.812 26.5C146.812 28.5921 147.278 30.4517 148.212 32.0789C149.146 33.7061 150.313 35.1008 151.947 36.0307C153.58 36.9605 155.448 37.4254 157.315 37.4254C159.415 37.4254 161.049 36.9605 162.683 36.0307C164.317 35.1008 165.484 33.7061 166.418 32.0789C167.351 30.4517 167.818 28.5921 167.818 26.5C167.818 24.4079 167.351 22.5482 166.418 20.921C165.484 19.2938 164.317 17.8991 162.683 16.9693C161.049 16.0394 159.182 15.5745 157.315 15.5745C155.448 15.5745 153.58 16.0394 151.947 16.9693Z" fill="#00AEEF"/>
<path d="M182.523 1.8596C182.989 2.32451 183.456 3.02188 183.456 3.95171C183.456 4.64907 183.223 5.34644 182.523 6.04381C182.056 6.50872 181.356 6.97363 180.422 6.97363C179.722 6.97363 179.022 6.74118 178.321 6.04381C177.855 5.5789 177.621 4.88153 177.621 3.95171C177.621 3.02188 177.855 2.55697 178.555 1.8596C179.022 1.39469 179.722 1.16223 180.655 1.16223C181.122 1.16223 181.822 1.39469 182.523 1.8596ZM179.022 12.785C179.488 12.3201 179.955 12.3201 180.422 12.3201C181.122 12.3201 181.589 12.5526 181.822 12.785C182.289 13.25 182.289 13.7149 182.289 14.1798V38.5877C182.289 39.285 182.056 39.75 181.822 39.9824C181.356 40.4473 180.889 40.4473 180.422 40.4473C179.722 40.4473 179.255 40.2149 179.022 39.9824C178.555 39.5175 178.555 39.0526 178.555 38.5877V14.1798C178.321 13.7149 178.555 13.0175 179.022 12.785Z" fill="#00AEEF"/>
<path d="M218 14.1798V26.5C218 29.2895 217.3 31.614 216.133 33.9386C214.966 36.2632 213.098 37.8903 210.998 39.0526C208.897 40.2149 206.33 40.9123 203.529 40.9123C200.728 40.9123 198.394 40.2149 196.06 39.0526C193.959 37.8903 192.092 36.0307 190.925 33.9386C189.758 31.614 189.058 29.2895 189.058 26.5C189.058 23.7105 189.758 21.386 190.925 19.0614C192.092 16.9693 193.959 15.1096 196.06 13.9474C198.16 12.7851 200.494 12.0877 203.295 12.0877C205.629 12.0877 207.73 12.5526 209.597 13.4825C211.464 14.4123 213.098 15.807 214.265 17.4342V2.09211C214.265 1.39474 214.499 0.929825 214.732 0.697368C214.966 0.232456 215.432 0 216.133 0C216.833 0 217.3 0.232456 217.533 0.464912C218 0.929825 218 1.39474 218 1.85965V13.4825C218 13.7149 218 13.9474 218 14.1798ZM208.897 35.7982C210.531 34.8684 211.698 33.4737 212.631 31.8465C213.565 30.2193 214.032 28.3596 214.032 26.2675C214.032 25.5702 214.032 25.3377 214.032 24.8728V24.6404C213.799 21.8509 212.631 19.7588 210.531 17.8991C208.664 16.2719 206.33 15.3421 203.529 15.3421C201.428 15.3421 199.794 15.807 198.16 16.7368C196.527 17.6667 195.36 19.0614 194.426 20.6886C193.492 22.3158 193.025 24.1754 193.025 26.2675C193.025 28.3596 193.492 30.2193 194.426 31.8465C195.36 33.4737 196.527 34.8684 198.16 35.7982C199.794 36.7281 201.661 37.193 203.529 37.193C205.629 37.193 207.263 36.7281 208.897 35.7982Z" fill="#00AEEF"/>
<path d="M7.23542 27.8948C8.65339 27.8948 9.80287 26.75 9.80287 25.3378C9.80287 23.9256 8.65339 22.7808 7.23542 22.7808C5.81746 22.7808 4.66797 23.9256 4.66797 25.3378C4.66797 26.75 5.81746 27.8948 7.23542 27.8948Z" fill="#00AEEF"/>
<path d="M12.837 20.4562C14.2549 20.4562 15.4044 19.3114 15.4044 17.8992C15.4044 16.487 14.2549 15.3422 12.837 15.3422C11.419 15.3422 10.2695 16.487 10.2695 17.8992C10.2695 19.3114 11.419 20.4562 12.837 20.4562Z" fill="#00AEEF"/>
<path d="M19.8394 30.2194C21.2574 30.2194 22.4069 29.0746 22.4069 27.6624C22.4069 26.2502 21.2574 25.1053 19.8394 25.1053C18.4215 25.1053 17.272 26.2502 17.272 27.6624C17.272 29.0746 18.4215 30.2194 19.8394 30.2194Z" fill="#00AEEF"/>
<path d="M27.775 16.7368C29.1929 16.7368 30.3424 15.592 30.3424 14.1798C30.3424 12.7676 29.1929 11.6228 27.775 11.6228C26.357 11.6228 25.2075 12.7676 25.2075 14.1798C25.2075 15.592 26.357 16.7368 27.775 16.7368Z" fill="#00AEEF"/>
<path d="M40.6124 11.3904C42.0303 11.3904 43.1798 10.2456 43.1798 8.83338C43.1798 7.42118 42.0303 6.27637 40.6124 6.27637C39.1944 6.27637 38.0449 7.42118 38.0449 8.83338C38.0449 10.2456 39.1944 11.3904 40.6124 11.3904Z" fill="#00AEEF"/>
</svg>
